<svg width="97" height="96" viewBox="0 0 97 96" fill="none" xmlns="http://www.w3.org/2000/svg">
<g filter="url(#filter0_d_143_1601)">
<circle cx="48.5" cy="46" r="44" fill="#F8F8F8"/>
</g>
<g clip-path="url(#clip0_143_1601)">
<path d="M38.543 61.524C38.4559 61.6429 38.342 61.7395 38.2105 61.8061C38.0791 61.8726 37.9337 61.9072 37.7864 61.907C37.5871 61.9071 37.393 61.8434 37.2325 61.7254C34.8146 59.9516 32.8091 57.6104 31.433 54.9546C30.0101 52.209 29.258 49.1125 29.258 46C29.258 43.9109 29.5828 41.8749 30.2241 39.9235L29.5382 40.2051C29.3091 40.295 29.0539 40.2911 28.8275 40.1944C28.6012 40.0977 28.422 39.9159 28.3286 39.6882C28.2351 39.4605 28.2349 39.2052 28.3281 38.9774C28.4212 38.7496 28.6002 38.5675 28.8264 38.4705L31.5434 37.3552C31.6573 37.3085 31.7793 37.2846 31.9024 37.2849C32.0255 37.2853 32.1474 37.31 32.261 37.3574C32.3746 37.4049 32.4777 37.4743 32.5645 37.5617C32.6512 37.6491 32.7199 37.7527 32.7666 37.8666L33.8819 40.5836C33.9763 40.8137 33.9754 41.0718 33.8795 41.3012C33.7836 41.5306 33.6005 41.7125 33.3705 41.8069C33.1405 41.9013 32.8824 41.9004 32.653 41.8045C32.4236 41.7086 32.2417 41.5255 32.1473 41.2955L31.9268 40.7582C31.4004 42.4451 31.133 44.2004 31.133 46C31.133 51.5887 33.8279 56.9023 38.3416 60.2135C38.4409 60.2863 38.5249 60.378 38.5887 60.4833C38.6526 60.5885 38.695 60.7053 38.7137 60.827C38.7324 60.9487 38.727 61.0729 38.6977 61.1925C38.6684 61.3121 38.6158 61.4247 38.543 61.524ZM33.2261 35.793C33.3867 35.9111 33.5807 35.9747 33.78 35.9746C33.9274 35.9748 34.0727 35.9403 34.2042 35.8737C34.3356 35.8072 34.4496 35.7105 34.5366 35.5916C37.8479 31.0779 43.1614 28.383 48.7503 28.383C50.5503 28.383 52.3059 28.6503 53.9927 29.1765L53.4546 29.3974C53.2284 29.4944 53.0495 29.6765 52.9563 29.9043C52.8632 30.1321 52.8634 30.3874 52.9568 30.6151C53.0502 30.8427 53.2295 31.0246 53.4558 31.1213C53.6821 31.218 53.9374 31.2218 54.1665 31.132L56.8835 30.0168C57.1135 29.9223 57.2966 29.7404 57.3925 29.5109C57.4884 29.2815 57.4892 29.0234 57.3949 28.7934L56.2796 26.0764C56.2329 25.9625 56.1642 25.8589 56.0774 25.7716C55.9906 25.6842 55.8875 25.6148 55.7739 25.5673C55.6603 25.5199 55.5385 25.4952 55.4154 25.4948C55.2923 25.4944 55.1703 25.5183 55.0564 25.565C54.9425 25.6117 54.8389 25.6805 54.7516 25.7672C54.6642 25.854 54.5948 25.9571 54.5473 26.0707C54.4999 26.1843 54.4752 26.3061 54.4748 26.4292C54.4744 26.5524 54.4983 26.6744 54.545 26.7882L54.8261 27.4731C52.8751 26.8321 50.8391 26.5079 48.7501 26.5079C45.6375 26.5079 42.541 27.26 39.7954 28.6827C37.1398 30.059 34.7984 32.0645 33.0246 34.4824C32.8776 34.6829 32.8162 34.9336 32.854 35.1794C32.8918 35.4252 33.0257 35.6459 33.2261 35.793ZM64.2743 56.2079C64.0738 56.0608 63.8231 55.9994 63.5774 56.0372C63.3316 56.075 63.1109 56.2088 62.9639 56.4092C59.6527 60.9225 54.3393 63.617 48.7501 63.617C46.9499 63.617 45.1945 63.3498 43.5079 62.8234L44.0455 62.6027C44.2755 62.5083 44.4586 62.3264 44.5545 62.097C44.6504 61.8676 44.6513 61.6095 44.5569 61.3795C44.4625 61.1495 44.2806 60.9664 44.0512 60.8705C43.8218 60.7746 43.5637 60.7737 43.3336 60.8681L40.6166 61.9832C40.5027 62.03 40.3992 62.0987 40.3118 62.1855C40.2245 62.2722 40.1551 62.3754 40.1076 62.489C40.0601 62.6026 40.0355 62.7244 40.0351 62.8475C40.0347 62.9706 40.0585 63.0926 40.1052 63.2065L41.2205 65.9236C41.315 66.1536 41.4969 66.3367 41.7263 66.4326C41.9556 66.5285 42.2137 66.5293 42.4438 66.435C42.6738 66.3406 42.8568 66.1587 42.9527 65.9293C43.0486 65.6999 43.0495 65.4418 42.9551 65.2118L42.6739 64.5265C44.6248 65.1678 46.6609 65.4919 48.7503 65.4919C51.8628 65.4919 54.9593 64.7399 57.7049 63.3174C60.3608 61.9412 62.7023 59.936 64.4757 57.5182C64.6228 57.3178 64.6842 57.0671 64.6464 56.8213C64.6086 56.5756 64.4747 56.3549 64.2743 56.2079ZM67.9616 51.795L67.2766 52.0762C67.9178 50.1252 68.2421 48.0892 68.2421 45.9999C68.2421 42.8874 67.4901 39.7909 66.0676 37.0452C64.6915 34.3892 62.6861 32.0479 60.2685 30.2743C60.1692 30.2014 60.0566 30.1489 59.937 30.1196C59.8174 30.0903 59.6932 30.0848 59.5715 30.1035C59.4499 30.1222 59.333 30.1647 59.2278 30.2286C59.1225 30.2924 59.0308 30.3764 58.958 30.4756C58.8852 30.5749 58.8326 30.6875 58.8033 30.8071C58.774 30.9267 58.7686 31.0509 58.7873 31.1726C58.806 31.2943 58.8485 31.4111 58.9123 31.5164C58.9762 31.6216 59.0601 31.7133 59.1594 31.7861C63.6726 35.0972 66.3671 40.4109 66.3671 45.9999C66.3671 47.8 66.0999 49.5555 65.5735 51.2424L65.3527 50.7045C65.2557 50.4783 65.0737 50.2993 64.8459 50.2062C64.618 50.1131 64.3628 50.1132 64.1351 50.2067C63.9074 50.3001 63.7256 50.4793 63.6288 50.7057C63.5321 50.932 63.5283 51.1872 63.6181 51.4164L64.7334 54.1335C64.8279 54.3635 65.0098 54.5465 65.2392 54.6424C65.4686 54.7382 65.7267 54.7391 65.9567 54.6447L68.6738 53.5295C68.9038 53.435 69.0868 53.2531 69.1827 53.0237C69.2786 52.7943 69.2795 52.5362 69.1851 52.3061C69.0905 52.0762 68.9086 51.8932 68.6791 51.7974C68.4497 51.7015 68.1917 51.7007 67.9616 51.795ZM48.7501 59.5416C41.2833 59.5416 35.2085 53.4669 35.2085 46C35.2085 38.5331 41.2833 32.4584 48.7501 32.4584C56.2169 32.4584 62.2916 38.5331 62.2916 46C62.2916 53.4669 56.2169 59.5416 48.7501 59.5416ZM47.9819 47.8415C47.8951 47.9428 47.7876 48.0244 47.6667 48.0809C47.5458 48.1373 47.4143 48.1673 47.2809 48.1689C47.1474 48.1707 47.0152 48.1439 46.893 48.0903C46.7708 48.0366 46.6616 47.9574 46.5726 47.8579L44.1465 45.156C44.0703 45.0711 43.977 45.0032 43.8728 44.9569C43.7685 44.9107 43.6556 44.887 43.5415 44.8875C43.3408 44.8872 43.1472 44.9616 42.9984 45.0963C42.9187 45.1675 42.854 45.2538 42.8079 45.3503C42.7619 45.4467 42.7354 45.5514 42.7301 45.6581C42.7242 45.7648 42.7395 45.8716 42.7751 45.9724C42.8108 46.0731 42.866 46.1658 42.9377 46.245L42.9385 46.2459L46.6954 50.4297C46.915 50.6736 47.1851 50.7015 47.328 50.6961C47.4475 50.6921 47.5647 50.6618 47.6712 50.6073C47.7777 50.5529 47.8709 50.4757 47.9441 50.3811C47.9536 50.3688 47.9635 50.3568 47.9736 50.3449L54.5766 42.6416C54.8669 42.3022 54.8271 41.789 54.4871 41.4981C54.3235 41.3584 54.1111 41.2893 53.8966 41.306C53.6821 41.3227 53.483 41.4238 53.3429 41.5871L47.9819 47.8415ZM80.625 42.2561V49.7439C80.625 51.2569 79.394 52.4878 77.8811 52.4878H76.6866C74.5913 52.4878 72.7915 53.6904 71.9896 55.6263C71.1879 57.562 71.6101 59.685 73.0918 61.1666L73.9364 62.0112C75.0062 63.0811 75.0061 64.8219 73.9364 65.8916L68.6419 71.1862C67.5716 72.2562 65.831 72.256 64.7612 71.1862L63.9166 70.3416C62.4349 68.86 60.3119 68.4376 58.3763 69.2397C56.4404 70.0416 55.2379 71.8413 55.2379 73.9366V75.1311C55.2379 76.6441 54.0069 77.875 52.494 77.875H45.0063C43.4932 77.875 42.2624 76.6441 42.2624 75.1311V73.9366C42.2624 71.8413 41.0597 70.0415 39.124 69.2396C37.1881 68.4377 35.0651 68.8599 33.5836 70.3416L32.739 71.1862C31.6689 72.2561 29.9282 72.2561 28.8584 71.1862L23.5637 65.8916C22.494 64.8216 22.494 63.0809 23.564 62.0111L24.4088 61.1665C25.8903 59.6849 26.3125 57.562 25.5106 55.6261C24.7087 53.6903 22.909 52.4876 20.8137 52.4876H19.6191C18.106 52.4878 16.875 51.2569 16.875 49.7439V42.2561C16.875 40.7431 18.106 39.5121 19.619 39.5121H20.8135C22.9089 39.5121 24.7086 38.3095 25.5105 36.3738C26.3123 34.438 25.89 32.315 24.4084 30.8334L23.5636 29.9886C23.0468 29.4717 22.7622 28.7828 22.7622 28.0485C22.7622 27.3141 23.0469 26.6251 23.5637 26.1082L28.8582 20.8136C29.3751 20.2968 30.0641 20.0121 30.7984 20.0121C31.5326 20.0121 32.2219 20.2968 32.7386 20.8136L33.5833 21.6582C35.0651 23.14 37.188 23.5623 39.1238 22.7603C41.0595 21.9584 42.2621 20.1588 42.2621 18.0634V16.8689C42.2624 15.356 43.4932 14.125 45.0063 14.125H52.4939C54.0069 14.125 55.2378 15.356 55.2378 16.869V18.0635C55.2378 20.1589 56.4404 21.9586 58.3761 22.7605C60.3119 23.5625 62.4349 23.1402 63.9166 21.6584L64.7611 20.8137C65.278 20.2969 65.967 20.0122 66.7014 20.0122C67.4357 20.0122 68.1249 20.2969 68.6416 20.8137L73.9362 26.1084C75.0061 27.1782 75.006 28.919 73.9361 29.9889L73.0915 30.8335C71.6097 32.3151 71.1876 34.4381 71.9894 36.3739C72.7913 38.3096 74.591 39.5123 76.6864 39.5123H77.8809C79.394 39.5123 80.625 40.7431 80.625 42.2561ZM78.75 42.2561C78.75 41.777 78.3603 41.3871 77.8811 41.3871H76.6866C73.8185 41.3871 71.355 39.7411 70.2574 37.0912C69.1597 34.4415 69.7378 31.5356 71.7658 29.5075L72.6104 28.6629C72.9492 28.324 72.9494 27.7727 72.6105 27.434L67.3159 22.1394C67.1533 21.9767 66.935 21.8871 66.7015 21.8871C66.468 21.8871 66.2499 21.9767 66.0871 22.1395L65.2425 22.9841C63.2142 25.0122 60.3084 25.5904 57.6586 24.4926C55.0089 23.395 53.3628 20.9315 53.3628 18.0634V16.8689C53.3628 16.3898 52.973 15.9999 52.4939 15.9999H45.0063C44.5271 15.9999 44.1374 16.3898 44.1374 16.8689V18.0634C44.1374 20.9315 42.4912 23.395 39.8415 24.4926C37.1916 25.5904 34.286 25.0122 32.2576 22.9841L31.413 22.1395C31.3323 22.0589 31.2365 21.9951 31.131 21.9518C31.0255 21.9085 30.9125 21.8865 30.7985 21.8871C30.6845 21.8865 30.5715 21.9084 30.4661 21.9517C30.3607 21.995 30.2649 22.0588 30.1842 22.1394L24.8896 27.434C24.7269 27.5968 24.6372 27.8149 24.6372 28.0484C24.6372 28.2819 24.7269 28.5 24.8896 28.6628L25.7344 29.5075C27.7625 31.5356 28.3405 34.4415 27.2428 37.0912C26.1453 39.741 23.6817 41.3871 20.8135 41.3871H19.619C19.3886 41.3874 19.1677 41.479 19.0048 41.6419C18.8419 41.8049 18.7503 42.0257 18.75 42.2561V49.7439C18.75 50.223 19.1399 50.6128 19.619 50.6128H20.8136C23.6816 50.6128 26.1451 52.2589 27.2428 54.9087C28.3404 57.5585 27.7624 60.4644 25.7345 62.4925L24.8896 63.3371C24.5509 63.6759 24.5509 64.2271 24.8896 64.566L30.1842 69.8606C30.5231 70.1995 31.0745 70.1994 31.4131 69.8605L32.2576 69.0159C33.6061 67.6674 35.3429 66.96 37.1343 66.96C38.037 66.96 38.9536 67.1396 39.8415 67.5074C42.4912 68.605 44.1374 71.0685 44.1374 73.9366V75.1311C44.1376 75.3615 44.2293 75.5823 44.3922 75.7452C44.555 75.9081 44.7759 75.9997 45.0063 76H52.4939C52.7242 75.9997 52.9451 75.9081 53.108 75.7452C53.2709 75.5823 53.3625 75.3615 53.3628 75.1311V73.9366C53.3628 71.0685 55.0089 68.605 57.6586 67.5074C60.3084 66.4097 63.2144 66.9879 65.2424 69.0158L66.0871 69.8604C66.4258 70.1991 66.9771 70.1992 67.316 69.8604L72.6104 64.5658C72.9492 64.227 72.9491 63.6758 72.6104 63.3369L71.7658 62.4922C69.7376 60.4641 69.1596 57.5581 70.2574 54.9085C71.3549 52.2586 73.8184 50.6125 76.6866 50.6125H77.8811C78.1115 50.6122 78.3323 50.5206 78.4952 50.3577C78.6581 50.1948 78.7497 49.974 78.75 49.7436V42.2561Z" fill="#568D61"/>
<circle cx="48.75" cy="46" r="13.75" fill="#A1C3DB"/>
<path d="M42.75 47.5L47.75 52L56.25 40.5" stroke="#568D61" stroke-width="2" stroke-linecap="round"/>
</g>
<defs>
<filter id="filter0_d_143_1601" x="0.5" y="0" width="96" height="96" filterUnits="userSpaceOnUse" color-interpolation-filters="sRGB">
<feFlood flood-opacity="0" result="BackgroundImageFix"/>
<feColorMatrix in="SourceAlpha" type="matrix" values="0 0 0 0 0 0 0 0 0 0 0 0 0 0 0 0 0 0 127 0" result="hardAlpha"/>
<feOffset dy="2"/>
<feGaussianBlur stdDeviation="2"/>
<feComposite in2="hardAlpha" operator="out"/>
<feColorMatrix type="matrix" values="0 0 0 0 0 0 0 0 0 0 0 0 0 0 0 0 0 0 0.25 0"/>
<feBlend mode="normal" in2="BackgroundImageFix" result="effect1_dropShadow_143_1601"/>
<feBlend mode="normal" in="SourceGraphic" in2="effect1_dropShadow_143_1601" result="shape"/>
</filter>
<clipPath id="clip0_143_1601">
<rect width="64" height="64" fill="white" transform="translate(16.75 14)"/>
</clipPath>
</defs>
</svg>
