<svg width="96" height="96" viewBox="0 0 96 96" fill="none" xmlns="http://www.w3.org/2000/svg">
<g filter="url(#filter0_d_143_1642)">
<circle cx="48" cy="46" r="44" fill="#F8F8F8"/>
</g>
<path d="M66.5922 58.7441H30.3042C27.8082 58.7441 25.8242 56.7601 25.8242 54.2641V32.1201C25.8242 29.6241 27.8082 27.6401 30.3042 27.6401H66.5922C69.0882 27.6401 71.0722 29.6241 71.0722 32.1201V54.3281C71.0722 56.7601 69.0882 58.7441 66.5922 58.7441Z" fill="white"/>
<path d="M66.6559 59.576H29.0239C26.5919 59.576 24.5439 57.592 24.5439 55.096V31.416C24.5439 28.984 26.5279 26.936 29.0239 26.936H66.6559C69.0879 26.936 71.1359 28.92 71.1359 31.416V55.096C71.0719 57.592 69.0879 59.576 66.6559 59.576ZM29.0239 28.728C27.5519 28.728 26.2719 29.944 26.2719 31.48V55.16C26.2719 56.632 27.4879 57.912 29.0239 57.912H66.6559C68.1279 57.912 69.4079 56.696 69.4079 55.16V31.48C69.4079 30.008 68.1919 28.728 66.6559 28.728H29.0239Z" fill="#548E60"/>
<path d="M56.6713 66.2959H39.0073C38.5593 66.2959 38.1113 65.9119 38.1113 65.3999C38.1113 64.9519 38.4953 64.5679 39.0073 64.5679H56.6713C57.1193 64.5679 57.5033 64.9519 57.5033 65.3999C57.5033 65.9119 57.1193 66.2959 56.6713 66.2959Z" fill="#548E60"/>
<path d="M42.9112 66.2321C42.8472 66.2321 42.7832 66.2321 42.7192 66.2321C42.2712 66.1041 41.9512 65.6561 42.0792 65.2081L43.6152 58.8721C43.7432 58.4241 44.1912 58.1041 44.6392 58.2321C45.0872 58.3601 45.4072 58.8081 45.2792 59.2561L43.7432 65.5921C43.6792 65.9761 43.2952 66.2321 42.9112 66.2321Z" fill="#548E60"/>
<path d="M52.7031 66.2321C52.3191 66.2321 51.9351 65.9761 51.8711 65.5921L50.3351 59.2561C50.2071 58.8081 50.5271 58.2961 50.9751 58.2321C51.4231 58.1041 51.9351 58.4241 51.9991 58.8721L53.5351 65.2081C53.6631 65.6561 53.3431 66.1681 52.8951 66.2321C52.8951 66.2321 52.7671 66.2321 52.7031 66.2321Z" fill="#548E60"/>
<path d="M70.0479 54.2641H25.5679C25.1199 54.2641 24.6719 53.8801 24.6719 53.4321C24.6719 52.9841 25.0559 52.6001 25.5679 52.6001H70.0479C70.4959 52.6001 70.8799 52.9841 70.8799 53.4321C70.8799 53.8801 70.4959 54.2641 70.0479 54.2641Z" fill="#548E60"/>
<path d="M41.2479 48.1202C43.1679 49.9762 45.7279 51.0002 48.4159 51.0002C49.0559 51.0002 49.7599 50.9362 50.3999 50.8082C52.3199 50.4242 54.1119 49.5282 55.5839 48.1202C57.6319 46.1362 58.7839 43.5122 58.7839 40.6322C58.7839 37.7522 57.6319 35.1282 55.5839 33.1442C53.6639 31.2882 51.1039 30.2642 48.4799 30.2642C48.1599 30.2642 47.8399 30.2642 47.4559 30.3282C45.1519 30.5202 42.9759 31.5442 41.3119 33.1442C39.2639 35.1282 38.1119 37.7522 38.1119 40.6322C38.0479 43.4482 39.1999 46.1362 41.2479 48.1202ZM41.8239 34.6802C42.3999 35.1282 43.0399 35.5122 43.6799 35.8322C43.3599 37.0482 43.1679 38.3922 43.1039 39.8002H39.5199C39.7119 37.9442 40.5439 36.1522 41.8239 34.6802ZM43.5519 33.2082C43.6159 33.1442 43.6799 33.1442 43.8079 33.0802C43.9359 33.0162 44.1279 32.8882 44.2559 32.8242C44.3199 32.7602 44.4479 32.7602 44.5119 32.6962C44.6399 32.6322 44.8319 32.5682 44.9599 32.5042C45.0239 32.5042 45.0879 32.4402 45.1519 32.4402C44.7679 33.0162 44.4479 33.7202 44.1279 34.4882C43.6799 34.2962 43.2959 34.0402 42.9119 33.7202C43.1679 33.4642 43.3599 33.3362 43.5519 33.2082ZM52.2559 32.6322C52.3199 32.6962 52.4479 32.6962 52.5119 32.7602C52.6399 32.8242 52.8319 32.9522 52.9599 33.0162C53.0239 33.0802 53.0879 33.0802 53.1519 33.1442C53.3439 33.2722 53.5999 33.4642 53.7919 33.5922C53.4079 33.8482 53.0239 34.1042 52.5759 34.3602C52.2559 33.5922 51.9359 32.8882 51.5519 32.3122C51.6159 32.3122 51.6799 32.3762 51.7439 32.3762C51.9359 32.5042 52.0639 32.5682 52.2559 32.6322ZM54.9439 46.5202C54.3679 46.0722 53.7279 45.6882 53.0879 45.3682C53.4079 44.1522 53.5999 42.8082 53.6639 41.4002H57.2479C57.0559 43.3202 56.2239 45.1122 54.9439 46.5202ZM53.2159 48.0562C53.1519 48.1202 53.0879 48.1202 53.0239 48.1842C52.8959 48.2482 52.7039 48.3762 52.5759 48.4402C52.5119 48.5042 52.3839 48.5042 52.3199 48.5682C52.1919 48.6322 51.9999 48.6962 51.8719 48.7602C51.8079 48.7602 51.7439 48.8242 51.6799 48.8242C52.0639 48.2482 52.3839 47.5442 52.7039 46.7762C53.1519 46.9682 53.5359 47.2242 53.9199 47.5442C53.5999 47.7362 53.4079 47.8642 53.2159 48.0562ZM44.5119 48.5682C44.4479 48.5042 44.3199 48.5042 44.2559 48.4402C44.1279 48.3762 43.9359 48.2482 43.8079 48.1842C43.7439 48.1202 43.6159 48.1202 43.5519 48.0562C43.3599 47.9282 43.1679 47.8002 42.9759 47.6082C42.9759 47.6082 42.9759 47.6082 42.9119 47.6082C43.2959 47.3522 43.6799 47.0962 44.1279 46.8402C44.4479 47.6082 44.7679 48.3122 45.1519 48.8882C45.0879 48.8882 45.0239 48.8242 44.9599 48.8242C44.8319 48.6962 44.7039 48.6322 44.5119 48.5682ZM45.0879 36.4082C46.1759 36.7282 47.2639 36.9202 48.3519 36.9202C49.5039 36.9202 50.5919 36.7282 51.6159 36.4082C51.8719 37.4322 51.9999 38.5842 52.0639 39.8642H44.6399C44.7039 38.5842 44.8319 37.4322 45.0879 36.4082ZM45.5359 35.0002C46.3039 33.0162 47.3919 31.8002 48.4159 31.8002C49.4399 31.8002 50.5279 33.0162 51.2959 35.0002C49.3759 35.5762 47.3919 35.5762 45.5359 35.0002ZM52.1279 41.3362C52.0639 42.6162 51.9359 43.7682 51.6799 44.7922C49.5679 44.0882 47.2639 44.0882 45.0879 44.7922C44.8319 43.7682 44.7039 42.6162 44.6399 41.3362H52.1279ZM51.2319 46.2642C50.4639 48.2482 49.3759 49.4642 48.3519 49.4642C47.3279 49.4642 46.2399 48.2482 45.4719 46.2642C47.3919 45.6242 49.3759 45.6242 51.2319 46.2642ZM53.6639 39.8642C53.5999 38.3922 53.4079 37.0482 53.0879 35.8962C53.7279 35.5762 54.3679 35.1922 54.9439 34.7442C56.2239 36.2162 57.0559 38.0082 57.1839 39.9282L53.6639 39.8642ZM43.1679 41.3362C43.2319 42.8082 43.4239 44.1522 43.7439 45.3042C43.1039 45.6242 42.4639 46.0082 41.8879 46.4562C40.6079 44.9842 39.7759 43.1922 39.6479 41.2722L43.1679 41.3362Z" fill="#A1C3DB"/>
<path d="M20.512 51.4482C18.592 51.4482 15.52 50.5522 15.2 49.2082C15.072 48.8882 15.2 48.5682 15.264 48.3762C15.392 48.1202 15.648 47.9282 16.032 47.7362L14.944 46.5842L14.752 45.6242L15.52 45.0482L17.376 44.9202L17.696 44.9842L20.576 46.4562L25.312 45.3042L21.152 40.6322L21.024 39.6722L21.792 39.1602L24.864 39.0322L25.248 39.1602L31.968 43.6402L39.648 41.7202H39.712C39.904 41.7202 40.16 41.6562 40.416 41.6562C41.568 41.6562 44.832 42.1682 45.216 43.7042C45.28 44.0242 45.216 44.3442 45.088 44.6002C44.64 45.3042 43.424 45.8802 40.928 46.5202L21.984 51.2562C21.536 51.3842 21.024 51.4482 20.512 51.4482Z" fill="#548E60"/>
<path d="M24.7995 39.8642H24.9275L31.8395 44.4722L39.8395 42.4882C40.0315 42.4882 40.2235 42.4242 40.4155 42.4242C41.9515 42.4242 44.2555 43.0642 44.4475 43.8322C44.7035 44.7282 41.3755 45.4962 40.6715 45.6882L21.7915 50.4242C21.4075 50.5522 20.9595 50.5522 20.5115 50.5522C18.5275 50.5522 16.1595 49.6562 15.9675 48.8882C15.8395 48.5042 16.1595 48.3762 17.5035 47.9922L15.6475 46.0722L15.5835 45.8802L15.7755 45.7522L17.3755 45.6242H17.5035L20.5115 47.2242L26.7835 45.6242L21.9195 40.1202L21.8555 39.9282L22.0475 39.8002L24.7995 39.8642ZM24.9915 38.2642H24.7355L21.9835 38.3922H21.5355L21.1515 38.6482L20.9595 38.7762L20.1275 39.3522L20.3195 40.3762L20.3835 40.5682L20.4475 41.0162L20.7675 41.3362L23.9035 44.8562L20.7675 45.6242L18.2715 44.3442L18.0795 44.2162L17.8875 44.1522H17.7595L17.5675 44.0882H17.3115L15.5835 44.2802L15.1355 44.3442L14.7515 44.6002L14.5595 44.7282L13.7275 45.3682L13.9195 46.3922L13.9835 46.5842L14.1115 47.0322L14.4315 47.3522L14.7515 47.6722C14.6875 47.8002 14.5595 47.8642 14.4955 47.9922C14.2395 48.4402 14.1755 48.9522 14.3675 49.4642C14.9435 51.4482 18.5915 52.2802 20.4475 52.2802C21.0235 52.2802 21.5995 52.2162 22.1115 52.0882L40.9275 47.3522H40.9915C43.7435 46.6482 45.0875 46.0082 45.5995 45.1122C45.8555 44.6642 45.9835 44.0882 45.8555 43.5762C45.2155 41.0162 40.3515 40.9522 40.2875 40.9522C40.0315 40.9522 39.7115 40.9522 39.5195 41.0162H39.4555H39.3915L32.0955 42.8722L25.8235 38.6482L25.6315 38.5202L25.3755 38.4562H25.2475L24.9915 38.2642Z" fill="white"/>
<defs>
<filter id="filter0_d_143_1642" x="0" y="0" width="96" height="96" filterUnits="userSpaceOnUse" color-interpolation-filters="sRGB">
<feFlood flood-opacity="0" result="BackgroundImageFix"/>
<feColorMatrix in="SourceAlpha" type="matrix" values="0 0 0 0 0 0 0 0 0 0 0 0 0 0 0 0 0 0 127 0" result="hardAlpha"/>
<feOffset dy="2"/>
<feGaussianBlur stdDeviation="2"/>
<feComposite in2="hardAlpha" operator="out"/>
<feColorMatrix type="matrix" values="0 0 0 0 0 0 0 0 0 0 0 0 0 0 0 0 0 0 0.25 0"/>
<feBlend mode="normal" in2="BackgroundImageFix" result="effect1_dropShadow_143_1642"/>
<feBlend mode="normal" in="SourceGraphic" in2="effect1_dropShadow_143_1642" result="shape"/>
</filter>
</defs>
</svg>
